<?xml version="1.0" encoding="UTF-8" standalone="no"?>
<svg width="1528px" height="2170px" viewBox="0 0 1528 2170" version="1.1" xmlns="http://www.w3.org/2000/svg" xmlns:xlink="http://www.w3.org/1999/xlink">
    <!-- Generator: Sketch 3.8.3 (29802) - http://www.bohemiancoding.com/sketch -->
    <title>SHAPES VECTOR</title>
    <desc>Created with Sketch.</desc>
    <defs></defs>
    <g id="Page-1" stroke="none" stroke-width="1" fill="none" fill-rule="evenodd">
        <g id="SHAPES-VECTOR">
            <rect id="Rectangle-2" fill="#83CDE5" x="0" y="0" width="1528" height="2170"></rect>
            <rect id="Rectangle-2" fill="#D6F0F4" x="0" y="1085" width="1528" height="1085"></rect>
            <polygon id="Rectangle_4_copy_11" fill="#83E0F1" points="213.912 1406 762 1521.68 639.081 2169.99 90.995 2054.31"></polygon>
            <polygon id="Rectangle_4_copy_10" fill="#86E3EF" opacity="0.55" points="1131.2 519.99 1528.01 916.8 1038.8 1406.01 641.992 1009.2"></polygon>
            <path d="M1058.86,811.98 L1058.39,811.79 L486.866,571.85 L487.06,571.38 L727.06,0 L727.522,0.19 L1299.047,240.14 L1298.857,240.6 L1058.86,811.98 Z M488.176,571.31 L1058.32,810.67 L1297.74,240.67 L727.6,1.31 L488.176,571.31 Z M302.533,949.4 L302.294,948.96 L7,404.08 L7.44,403.84 L552.461,108.62 L552.699,109.06 L752.953,478.57 L752.847,478.8 L611.552,782.02 L611.407,782.1 L302.533,949.4 Z M8.356,404.48 L302.936,948.05 L610.785,781.29 L751.834,478.61 L552.058,109.98 L8.356,404.48 Z M820.414,1297.31 L728.878,683.88 L729.378,683.81 L1092.825,629.6 L1092.975,629.7 L1373.875,802.85 L1373.915,803.08 L1434,1205.8 L1433.5,1205.87 L820.414,1297.31 Z M730.014,684.72 L821.255,1296.18 L1432.855,1204.96 L1372.945,803.46 L1092.6,630.65 L730.014,684.72 Z M1150.069,855.93 L1091.919,629.05 L1092.979,629.7 L1374.709,803.37 L1150.069,855.93 Z M1093.509,631.2 L1150.799,854.73 L1372.119,802.94 L1093.509,631.2 Z M108.194,1520.3 L108.136,1519.81 L35.747,904.33 L36.247,904.27 L651.882,831.9 L651.94,832.4 L724.33,1447.88 L723.83,1447.93 L108.194,1520.3 Z M36.858,905.2 L109.07,1519.19 L723.215,1447 L651,833.01 L36.858,905.2 Z M1202.72,1694 L1202.22,1693.93 L589.13,1602.49 L589.204,1601.99 L649.258,1199.54 L649.458,1199.41 L930.314,1026.29 L930.495,1026.32 L1294.253,1080.57 L1294.183,1081.06 L1202.72,1694 Z M590.267,1601.65 L1201.867,1692.86 L1293.107,1081.41 L930.522,1027.33 L650.179,1200.14 L590.267,1601.65 Z M873.056,1252.62 L872.58,1252.5 L648.423,1200.05 L649.456,1199.41 L931.209,1025.73 L930.901,1026.93 L873.056,1252.62 Z M651.013,1199.63 L872.33,1251.42 L929.625,1027.89 L651.013,1199.63 Z M611.013,783.17 L557.713,557.84 L753.387,477.64 L752.847,478.8 L611.013,783.17 Z M558.883,558.44 L611.323,780.14 L751.4,479.54 L558.883,558.44 Z" id="Shape" fill="#BAE6EC" opacity="0.9"></path>
            <g id="SECOND_copy" transform="translate(108.000000, 109.000000)">
                <polygon id="Shape" fill="#FCD043" points="644.218 237.79 400.1 0.99 0.6 412.94 412.272 812.27 674.645 541.72"></polygon>
                <polygon id="Shape" fill="#FFE700" points="644.066 237.59 674.847 541.59 511 406.67"></polygon>
            </g>
        </g>
    </g>
</svg>