<svg viewBox="0 0 420 120" style="background-color:#ffffff00" xmlns="http://www.w3.org/2000/svg" xmlns:xlink="http://www.w3.org/1999/xlink"><defs><radialGradient id="h" r="100%"><stop stop-color="#fff" stop-opacity=".3" offset="0"/><stop stop-color="#fff" stop-opacity="0" offset="100%"/></radialGradient><linearGradient id="a" x1="50%" y2="50%"><stop stop-color="#ce7" offset="0"/><stop stop-color="#bd6" offset="100%"/></linearGradient><linearGradient id="b" x1="100%" y1="0%" x2="0%" y2="100%"><stop stop-color="#ac3" offset="0"/><stop stop-color="#bd5" offset="100%"/></linearGradient><linearGradient id="c" y1="5%" x2="40%" y2="100%"><stop stop-color="#ad4" offset="0"/><stop stop-color="#9c3" offset="100%"/></linearGradient><linearGradient id="d" x1="40%" y1="40%" y2="100%"><stop stop-color="#90c030" offset="0"/><stop stop-color="#7a1" offset="100%"/></linearGradient><linearGradient id="e" x1="100%" y1="5%" x2="140%" y2="100%"><stop stop-color="#edf3d5" offset="0"/><stop stop-color="#f5f9e7" offset="100%"/></linearGradient><linearGradient id="f" x1="100%" y1="20%" y2="80%"><stop stop-color="#e7f1cb" offset="0"/><stop stop-color="#fff" offset="100%"/></linearGradient><linearGradient id="g" x1="100%" y1="5%" x2="140%" y2="100%"><stop stop-color="#edf3d5" offset="0"/><stop stop-color="#f5f9e7" offset="100%"/></linearGradient></defs><path d="M387 80V45h16v22c0 4.7.5 8.3 2.6 10.2 1.8 1.8 4.6 2.8 7.8 2.8 2.8 0 5-.4 6.4-.9l-.4-5c-.8.3-2.2.5-4 .5-4 0-5.4-2.7-5.4-7.6V45h10v-5h-10V29l-7 2v9h-16v-2c0-5.6 1.8-10.5 7.8-10.5 2 0 3.4.4 4.5.8l.9-5.3c-1.3-.6-3.5-1.2-6-1.2-3.2 0-6.8 1.1-9.5 3.6-3.5 3.1-4.7 7.5-4.7 12.6v2h-6v5h6v35h7zm-13.8-18.3c.1-.8.3-2 .3-3.5 0-7-3.7-18.2-16.6-18.2-11.3 0-18.8 9.3-18.8 21 0 11.3 7.8 19 19.7 19 6.2 0 10.6-1.2 13.3-2.4l-1.3-4.9c-2.9 1.1-6 1.9-11 1.9-7.1 0-13.2-3.8-13.3-12.9h27.7zm-27.6-5.4c.5-4.7 3.6-10.9 10.8-10.9 7.9 0 9.8 6.6 9.7 10.9h-20.5zM327.3 80h6.7V22h-7v57.9l.3.1zM311 80V58.4c0-1.3 0-2.6.2-3.6 1-5.5 4.5-9.4 9.4-9.4 1 0 1.6 0 2.4.2v-5.5c-.7 0-1.2-.1-2-.1-4.7 0-8.9 2.6-10.7 7.3h-.3l-.3-7.2h-6.5c.2 3.7.3 7.7.3 12.4V80h7.5zm-14 0c-.5-2.7-1-6.2-1-9.6v-15c0-7.3-3.1-15.4-15.4-15.4-4.9 0-9.6 1.4-13 3.5l1.7 4.5c2.9-1.6 6.7-2.6 10.3-2.6 8.1 0 8.9 5.2 8.9 8.2v.7c-15.1-.1-23.8 5.6-23.8 15.1 0 4.9 4.2 10.6 12.3 10.6 5.5 0 9.8-2.8 12-5.9h.2l.8 5.9h7zm-8-13.5c0 .3-.3 1.2-.5 1.9-1.2 3.2-4.6 6.2-9.7 6.2-3.6 0-6.7-2.1-6.7-6.5 0-7.2 9.1-8.3 16.9-8.1v6.5zm-27.1-8.3c0-7-3.3-18.2-16.2-18.2-11.3 0-18.7 9.3-18.7 21 0 11.3 7.7 19 19.6 19 6.2 0 10.6-1.2 13.3-2.4l-1.3-4.9c-2.9 1.1-6 1.9-11 1.9-7.1 0-13.4-3.5-13.6-12.6h27.6s.3-2.3.3-3.8zM234 57c.6-4.7 4-11.6 11.2-11.6 7.9 0 9.9 7.3 9.8 11.6h-21zm-19.5 23h7.5V22h-7v57.9l-.5.1zm-7.7-7.6c-2.8 1.4-7.2 2.2-11.4 2.2-13.1 0-20.7-8.3-20.7-21.3 0-14 8.4-21.9 21-21.9 4.5 0 8.3.9 10.9 2.2l1.7-5.4c-1.9-.9-6.1-2.2-12.8-2.2-16.7 0-28.2 10.9-28.2 27.5 0 17.4 11.5 26.5 26.7 26.5 6.5 0 11.6-1.2 14.2-2.3l-1.4-5.3z" fill="#333"/><path d="M144 22L96 2 48 22l48 20 48-20z" fill="url(#a)"/><path d="M144 22v58.7L96 100V42l48-20z" fill="url(#b)"/><path d="M48 22v38l48-18-48-20z" fill="url(#c)"/><path d="M48 60v20l48 20V42L48 60z" fill="url(#d)"/><path d="M48 80v40l48-20-48-20z" fill="#e6eccc"/><path d="M48 22v38L0 42l48-20z" fill="url(#e)"/><path d="M0 42v58l48 20V60L0 42z" fill="url(#f)"/><path d="M48 120V80L0 100l48 20z" fill="url(#g)"/><a xlink:href="/" target="_top"><path fill="none" d="M0 0h420v120H0z"/></a></svg>