<svg width="163" height="193" viewBox="0 0 163 193" xmlns="http://www.w3.org/2000/svg" xmlns:xlink="http://www.w3.org/1999/xlink"><title>LG-LOGO</title><defs><path id="a" d="M0 192.94h162.683V.726H0V192.94z"/></defs><g fill="none" fill-rule="evenodd"><mask id="b" fill="#fff"><use xlink:href="#a"/></mask><path d="M0 51.83L80.32.727l82.363 51.105v87.886L80.318 193 0 139.716V51.83" fill="#B6DFE5" mask="url(#b)"/><path d="M0 51.83L80.32.727l82.363 51.105v87.886L0 51.83" fill="#8CD0DE"/><path d="M49.263 120.346c0 1.004.102 1.815.31 2.434.205.62.544 1.093 1.017 1.416.472.325 1.062.576 1.77.753.708.176 1.563.324 2.567.44v5.4H28.73v-5.4c1.003-.116 1.872-.264 2.61-.44.738-.178 1.33-.43 1.77-.754.444-.323.767-.796.975-1.416.206-.62.31-1.43.31-2.434v-45.49l-5.222-4.78V67.07L46.52 63.44h2.743v56.906M87.848 87.6c-1.712 0-3.217.414-4.514 1.24-1.298.827-2.39 1.99-3.274 3.496-.885 1.504-1.564 3.305-2.036 5.398-.473 2.095-.708 4.412-.708 6.948 0 5.31 1.002 9.573 3.01 12.788 2.004 3.217 4.836 4.824 8.495 4.824 1.18 0 2.302-.163 3.365-.487 1.06-.324 2.035-.753 2.92-1.283V97.07c0-3.186-.562-5.56-1.682-7.124-1.12-1.562-2.98-2.345-5.575-2.345zm7.256 35.578c-1.475 2.538-3.362 4.59-5.664 6.152-2.3 1.562-5.31 2.344-9.026 2.344-2.715 0-5.193-.516-7.435-1.548-2.244-1.032-4.175-2.522-5.797-4.47-1.623-1.946-2.876-4.306-3.76-7.08-.887-2.772-1.33-5.93-1.33-9.47 0-4.306.62-8.126 1.86-11.46 1.238-3.333 2.95-6.15 5.133-8.453 2.182-2.3 4.764-4.055 7.743-5.265 2.978-1.208 6.208-1.815 9.69-1.815 1.888 0 3.584.238 5.09.708 1.503.475 2.668 1.123 3.494 1.95v-9.914l-5.22-4.78V67.07l17.434-3.628h2.743v55.137c0 1.535.237 2.67.71 3.407.47.738 1.445 1.166 2.92 1.283h2.212v5.487l-17.877 2.92h-2.92v-8.496zM122.714 122.825c0-2.655.855-4.81 2.567-6.46 1.712-1.653 3.806-2.48 6.285-2.48 1.238 0 2.403.222 3.495.664 1.092.442 2.036 1.062 2.832 1.858.797.797 1.43 1.74 1.903 2.832.472 1.093.708 2.288.708 3.585 0 1.298-.236 2.477-.708 3.54-.472 1.06-1.106 1.99-1.903 2.787-.796.797-1.74 1.416-2.832 1.86-1.092.442-2.257.662-3.495.662-2.48 0-4.573-.827-6.284-2.477-1.71-1.65-2.566-3.776-2.566-6.372" fill="#1E5F96"/></g></svg>